<svg width="719" height="179" viewBox="0 0 719 179" fill="none" xmlns="http://www.w3.org/2000/svg">
    <g clip-path="url(#clip0_668_864)">
        <path d="M200.6 153C200.6 157.7 197 160.4 192.5 160.4H186.1V169.9H182.1V145.5H192.3C197.3 145.6 200.6 148.5 200.6 153ZM196.6 153C196.6 150.7 195.1 149.1 192.4 149.1H186.1V156.8H192.3C195 156.8 196.6 155.3 196.6 153Z" fill="#1A1A18" />
        <path d="M216 159.8H211.5V170H207.5V145.6H218.5C223.5 145.6 226.5 148.5 226.5 152.8C226.5 157.1 223.7 159.9 218.5 159.9H217L221.1 160.8L227.6 170H223L216 159.8ZM211.5 156.3H218.4C221.1 156.3 222.6 154.8 222.6 152.7C222.6 150.6 221.1 149.1 218.4 149.1H211.5V156.3Z" fill="#1A1A18" />
        <path d="M238.3 145.6V170H234.3V145.6H238.3Z" fill="#1A1A18" />
        <path d="M267.1 145.6L258 170H253.5L244.5 145.6H248.8L255.8 165L262.8 145.6H267.1Z" fill="#1A1A18" />
        <path d="M286.1 164H275.4L273.1 169.9H268.8L278.7 145.5H282.9L292.7 169.9H288.4L286.1 164ZM284.7 160.5L280.7 150.2L276.7 160.5H284.7Z" fill="#1A1A18" />
        <path d="M314.1 149.2H306.4V170H302.4V149.3H294.6V145.6H314.1V149.2Z" fill="#1A1A18" />
        <path d="M337.3 166.4V170H320.7V145.6H337.3V149.2H324.7V155.9H336.4V159.4H324.7V166.4H337.3V166.4Z" fill="#1A1A18" />
        <path d="M373.6 162.8C373.6 167.4 370.5 169.9 365.4 169.9H355.6V145.5H364.9C369.4 145.5 372.6 147.8 372.6 152.1C372.6 154.1 371.4 156.2 369.5 157C371.9 157.9 373.6 160.3 373.6 162.8ZM359.5 149.1V155.7H364.6C367.3 155.7 368.6 154.5 368.6 152.3C368.6 150.2 367.2 149 364.9 149H359.5V149.1ZM369.6 162.8C369.6 160.6 368 159.3 365.8 159.3H359.6V166.4H365.5C368.2 166.4 369.6 165 369.6 162.8Z" fill="#1A1A18" />
        <path d="M395.9 164H385.2L382.9 169.9H378.6L388.5 145.5H392.7L402.5 169.9H398.2L395.9 164ZM394.5 160.5L390.5 150.2L386.5 160.5H394.5Z" fill="#1A1A18" />
        <path d="M428 145.6V170H422.7L412.3 150.7V170H408.4V145.6H413.7L424 165V145.6H428Z" fill="#1A1A18" />
        <path d="M443.2 158.6L440.6 161.2V169.9H436.6V145.5H440.6V160L441.7 154.9L451 145.6H456.2L445.9 155.9L457.1 170H452.2L443.2 158.6Z" fill="#1A1A18" />
        <path d="M479.8 166.4V170H463.2V145.6H479.8V149.2H467.2V155.9H478.9V159.4H467.2V166.4H479.8V166.4Z" fill="#1A1A18" />
        <path d="M496 159.8H491.5V170H487.5V145.6H498.5C503.5 145.6 506.5 148.5 506.5 152.8C506.5 157.1 503.7 159.9 498.5 159.9H497L501.1 160.8L507.6 170H502.9L496 159.8ZM491.5 156.3H498.4C501.1 156.3 502.6 154.8 502.6 152.7C502.6 150.6 501.1 149.1 498.4 149.1H491.5V156.3Z" fill="#1A1A18" />
        <path d="M531.9 151.9L528.3 153.5C528.3 150.5 526.1 148.4 522.6 148.4C519.6 148.4 517.6 149.7 517.6 152C517.6 157.9 532.3 153.3 532.3 163.1C532.3 167.8 528.2 170.5 522.9 170.5C517.7 170.5 513.7 167.7 513 162.9L516.8 161.1C516.8 164.7 519.1 167 522.9 167C526 167 528.2 165.6 528.2 163.2C528.2 157 513.6 161.8 513.6 152.2C513.6 147.8 517.8 144.9 522.7 144.9C528 145 531.4 148.1 531.9 151.9Z" fill="#1A1A18" />
        <path d="M495 97.9C492.6 99.6 489.9 100.9 487.1 102C484.6 102.9 481.6 103.8 479.5 103.6C477 103.5 475.1 101.4 475.2 99C475.2 98.4 475.4 97.7 475.7 97.2C476.8 94.9 481.1 92 492.1 90.8C495.6 90.5 499.1 90.6 502.6 91.3C500.1 93.6 497.6 95.8 495 97.9ZM71.4999 106.7C60.1999 111.7 55.8999 115.3 27.7999 120.5C23.8999 121.2 15.7999 121.5 11.9999 120.7C10.8999 120.5 9.69994 120 9.99994 119.6C10.7999 118.6 13.3999 117.4 15.1999 116.5C28.9999 109.4 48.0999 107.8 62.2999 107.1C65.1999 107 67.8999 106.8 70.2999 106.7H71.4999C71.3999 106.7 71.3999 106.7 71.4999 106.7ZM711.8 101.9C711 102.1 705.4 102.8 704 103C701.3 103.3 699.9 103.3 699.7 102.3C700.2 100.2 700.8 98.1 701.5 96C702.6 93.3 704.9 85.9 700.1 87.3C688.6 90.6 662.6 99.5 653.9 102C653.1 102.1 652.4 101.9 652.3 101C652.3 101 656.2 90.6 656.5 89.3C656.6 88.6 657.4 86.9 655.6 86.6C654.6 86.4 648.6 88.1 640.3 90.8C632 93.5 605.9 101.3 602.8 101.5C602.5 101.1 605.7 91.8 605.9 90.8C606.2 88.8 606.3 87.6 604.8 87.6C601.9 87.6 556.4 102.2 556.4 102.2C556.4 102.2 555.1 102.7 554.8 102C554.6 101.6 554.7 101.1 555.1 100.1C555.1 100.1 559 89.7 559.1 89.4C559.5 88.3 559.7 86.7 557.9 87.2C541.7 91.4 502.9 101.4 502.6 101.4C501.7 101.2 501.1 100.2 501.4 99.3C501.4 99.2 501.4 99.1 501.5 99.1C501.6 99 505.8 93.3 506.3 92.7C506.7 92.2 506.7 91.5 506.4 91L506.1 90.6V90.5C505.9 90.1 505.9 89.7 506.1 89.3L506.2 89.2C506.3 89.1 506.3 89 506.3 88.9C506.4 88.4 506.2 88 505.8 87.7C502.3 86.6 502.1 86 496.5 86.5C485.1 87.5 483.3 88.9 478.8 89.8C472.1 91.3 450.1 98.8 443.8 100.3C443.8 100.3 435.3 102.7 434.8 100.9C433.8 97.6 437.6 90.5 437.5 89.5C437.4 88.5 437 87.1 434 87.6C428.6 88.5 391.3 100.4 387.2 100.6C386.6 100.7 385.9 100.6 385.3 100.4C384.4 99.8 384.8 99 385.5 98C385.9 97.4 390 91.5 389.7 89C389.7 88.7 390 86.4 387 87.1C376.7 89.8 348.3 99.1 342.8 100.9C342.3 101.1 341.8 100.8 341.6 100.3C341.5 100.1 341.5 99.9 341.6 99.7C341.7 99.3 345.8 90.9 345.9 90.5C346.1 89.7 346 88.8 345.5 88.2C344.9 87.7 344.1 87.5 343.4 87.7C342.7 87.8 319.1 98.3 307.6 100.9C301.7 102.3 290.7 104.7 285.6 100.4C283.3 98.7 281.9 96.2 281.6 93.4C281.6 93 281.6 92.7 281.5 92.3C281.3 88.5 284 80.6 285.5 77C287.2 73 289.4 69.2 291.9 65.7C296.1 59.5 300.7 53.1 300.7 53.1L325.8 52.9C326.7 52.9 327.5 52.2 327.5 51.2C327.5 50.3 326.8 49.5 325.8 49.5L303.5 49.8C303.4 49.8 303.4 49.7 303.4 49.7V49.6C303.6 49.4 313 37.6 314.1 36.2C316.1 33.7 316.6 31.9 316.3 30.7C315.8 28.7 313.1 28.4 311.4 29.4C308.8 31.1 294.6 49.3 294.5 49.4H269.9C269 49.4 268.2 50.2 268.2 51.1C268.2 52 268.9 52.8 269.9 52.8L291.9 53.1V53.2C291 54.5 278.6 70.3 277.8 71.3C271.4 78.7 263.8 85 255.2 89.7C244.2 95.9 214.4 105.5 215.7 102.4C215.9 102 222.2 90.3 219 87.5C217.4 86.1 214.7 87.8 212.3 88.9C202.2 93.5 199.7 95.8 176.6 103.1C172.9 104.3 179 93.1 179 93.1C179.4 92 179.6 90.9 179.5 89.7C179.2 88.1 177.7 87 176 87.2C175.9 87.2 175.8 87.2 175.7 87.3C144.7 94.8 93.3999 102 93.3999 102C93.3999 102 99.0999 98.7 100.7 97.8C111.1 91.4 129 79.7 139.7 69.6C139.7 69.6 150.4 58.9 152.9 56.2C154.2 54.7 154 53.5 153.2 53C152.7 52.7 152 52.7 151.5 53C151.5 53 145.1 57 137.7 61.8C136.3 62.7 134.2 64.1 131.7 65.6C119.1 73.5 94.7999 87.3 76.1999 84.5C74.5999 84.3 73.0999 83.8 71.7999 82.9C68.9999 80.9 66.8999 76.1 71.2999 64.6C71.2999 64.5 71.3999 64.4 71.3999 64.3C74.5999 56.2 81.8999 48.2 81.8999 48.2C81.8999 48.2 102 23.9 120.5 12.9C134.9 4.39997 141.3 3.09997 142.5 2.89997C150 1.99997 149.2 5.99997 148.3 10.4C146.7 18.2 139.1 26.4 133.1 32.6C127.6 38.3 118.5 46.3 117.3 47.4C116.4 48.2 115.2 49.1 113.9 50.1C113.8 50.1 113.8 50.2 113.8 50.3C113.2 51 113.3 52.1 114 52.6C114.6 53.1 115.4 53.1 116 52.7L116.2 52.5C118.8 50.2 143.1 29.2 148.6 18.7C150.5 15.1 151.6 12.8 152.1 9.69997C152.6 6.59997 152.4 3.99997 150.9 2.29997C150.2 1.59997 149.4 0.999966 148.5 0.699966C144.9 -0.700034 139.2 0.399966 133.2 2.39997C120.6 6.69997 106.1 15.5 104 16.9C80.9999 32.2 69.3999 46.5 64.4999 58.7C61.1999 67.2 61.0999 74.6 62.7999 80.6C66.1999 89.6 77.9999 89.2 84.9999 88.2C92.7999 87.1 100.3 84.9 107.4 81.6C111.2 79.9 116.9 76.8 120.6 74.9C122.6 73.9 131.4 68.9 131.4 68.9C131.4 68.9 126.8 74.3 109.4 86.5C101.3 92.2 87.5999 98.7 79.7999 102.4C76.8999 102.5 74.1999 102.5 71.6999 102.6C60.2999 102.9 48.9999 104 37.6999 105.7C33.4999 106.3 29.2999 107.2 25.0999 108.3C14.4999 111.1 5.39994 115.3 1.59994 119C-0.700056 121.3 -1.00006 123.4 1.49994 125C9.59994 130.1 29.8999 126.5 37.3999 125C50.9999 122.3 83.9999 107.4 86.6999 106.2L87.0999 106.1C87.0999 106.1 159 95.1 168.7 92.8C169.8 92.5 173.5 91.5 172.6 93.3C172.5 93.5 167.4 103.1 168.3 105.7C171.3 114.3 209.9 93.7 211.8 94.6C212.3 94.8 209.8 99.9 209.8 99.9C209.7 100.1 208.2 103.8 208 104.6C207.8 105.4 207.8 107.5 212.1 107.7C215.2 107.8 216.9 107.9 225 105.4C245.4 99 256.8 93.7 264.7 88.2C264.9 88 265.2 87.9 265.4 87.7C273.7 81.7 278.3 77.1 279 76.6C279 76.6 279.1 76.6 279 76.6C278.7 77.5 275.3 87.7 275.5 92.3C275.5 92.9 275.6 93.6 275.7 94.2C276.9 100.8 280.9 104.1 285.8 105.8C290.7 107.5 301.9 106.2 312.2 103.2C318.3 101.4 332.2 94.6 333 94.4C334.7 94.1 335.5 94.3 334.6 96.4C334.6 96.4 331.4 104 331.3 104.5C331 105.9 332.5 107.7 334.9 107.3L378.9 94.5C378.9 94.7 375.1 103.2 374.9 104C374.6 105.4 374.6 107 378 106.4C377.7 106.5 385 105.3 387.6 104.7C393.3 103.4 423.2 94.8 423.6 94.7C428.8 93.1 428.4 93.5 427.6 97.9C426.9 101.9 427.1 102.7 427.3 103.7C428 106.9 434.5 105.4 439.9 104.3C441.4 104 468.4 96.9 470.1 96.4C470.2 96.4 467.8 104.8 474.8 107.5C483.9 111 495.7 102.5 495.7 102.5C496.5 105 499 106.5 501.6 106.1C502.9 106 545.7 94.4 545.7 94.4C546 94.2 546.4 94.4 546.6 94.7C546.7 94.8 546.7 94.9 546.7 95.1C546.7 95.1 544.5 102.3 544.4 102.9C544 104.2 543.8 105.6 543.6 106.9C543.6 106.9 543.2 108.7 547.3 107.8L551 107.1C565.3 104.2 593.9 95.2 593.9 95.2L595.3 94.9C595.9 94.8 596.3 94.9 596.4 95.6C596.4 95.7 595 100.4 595 100.5C594.7 102.4 593.9 106.1 598.4 106.3C600.3 106.4 642.3 92.9 642.3 92.9C642.3 92.9 644.7 92 644.6 93.4C644.6 94.8 641.7 106.2 641.7 106.2C641.5 106.9 642 109 644 108.5C657.4 105.1 693.7 93.7 694.4 93.5L692.1 100.7C691.7 102.3 691.5 104.3 692.2 105.2C693.3 106.6 694.3 106.6 697 106.7C699.4 106.8 711.5 104.8 712 104.7C712.5 104.6 712.9 104.1 712.9 103.6V103C712.9 102.4 712.4 101.9 711.8 101.9C711.7 101.9 711.7 101.9 711.6 101.9" fill="#1A1A18" />
    </g>
    <defs>
        <clipPath id="clip0_668_864">
            <rect width="718.9" height="178.7" fill="white" />
        </clipPath>
    </defs>
</svg>